<?xml version="1.0" encoding="UTF-8" standalone="no"?>
<svg width="16px" height="16px" viewBox="0 0 16 16" version="1.1" xmlns="http://www.w3.org/2000/svg" xmlns:xlink="http://www.w3.org/1999/xlink">
    <!-- Generator: Sketch 41 (35326) - http://www.bohemiancoding.com/sketch -->
    <title>timetable</title>
    <desc>Created with Sketch.</desc>
    <defs></defs>
    <g id="Page-1" stroke="none" stroke-width="1" fill="none" fill-rule="evenodd" stroke-linecap="round" stroke-linejoin="round">
        <g id="timetable" stroke="#000000">
            <path d="M7.00686499,6.60640732 C7.00686499,6.82745995 6.82745995,7.00686499 6.60640732,7.00686499 L1.40045767,7.00686499 C1.17940503,7.00686499 1,6.82745995 1,6.60640732 L1,1.40045767 C1,1.17940503 1.17940503,1 1.40045767,1 L6.60640732,1 C6.82745995,1 7.00686499,1.17940503 7.00686499,1.40045767 L7.00686499,6.60640732 Z M15,6.60640732 C15,6.82745995 14.820595,7.00686499 14.5995423,7.00686499 L9.39359268,7.00686499 C9.17254005,7.00686499 8.99313501,6.82745995 8.99313501,6.60640732 L8.99313501,1.40045767 C8.99313501,1.17940503 9.17254005,1 9.39359268,1 L14.5995423,1 C14.820595,1 15,1.17940503 15,1.40045767 L15,6.60640732 Z M7.00686499,14.5995423 C7.00686499,14.820595 6.82745995,15 6.60640732,15 L1.40045767,15 C1.17940503,15 1,14.820595 1,14.5995423 L1,9.39359268 C1,9.17254005 1.17940503,8.99313501 1.40045767,8.99313501 L6.60640732,8.99313501 C6.82745995,8.99313501 7.00686499,9.17254005 7.00686499,9.39359268 L7.00686499,14.5995423 Z M15,14.5995423 C15,14.820595 14.820595,15 14.5995423,15 L9.39359268,15 C9.17254005,15 8.99313501,14.820595 8.99313501,14.5995423 L8.99313501,9.39359268 C8.99313501,9.17254005 9.17254005,8.99313501 9.39359268,8.99313501 L14.5995423,8.99313501 C14.820595,8.99313501 15,9.17254005 15,9.39359268 L15,14.5995423 Z" id="Combined-Shape"></path>
        </g>
    </g>
</svg>