<?xml version="1.0" encoding="UTF-8" standalone="no"?>
<svg width="16px" height="16px" viewBox="0 0 16 16" version="1.1" xmlns="http://www.w3.org/2000/svg" xmlns:xlink="http://www.w3.org/1999/xlink">
    <!-- Generator: Sketch 3.6.1 (26313) - http://www.bohemiancoding.com/sketch -->
    <title>calendar rounded</title>
    <desc>Created with Sketch.</desc>
    <defs></defs>
    <g id="Page-1" stroke="none" stroke-width="1" fill="none" fill-rule="evenodd">
        <g id="calendar-rounded" fill="#000000">
            <path d="M4.81321402,1.00002259 C4.55839508,1.04814756 4.34091316,1.09239072 4.34091316,1.48692003 L4.34091316,3.39464481 C4.33734953,3.64661285 4.56601076,3.87836044 4.81818561,3.87836044 C5.07036046,3.87836044 5.29902328,3.64661285 5.29545805,3.39464481 L5.29545805,1.48692003 C5.30077169,1.23223155 5.06811251,0.997349866 4.81321402,1.00002259 L4.81321402,1.00002259 Z M11.1271307,1.00495441 C10.8943204,1.03177712 10.7005828,1.25270653 10.7045458,1.4868723 L10.7045458,3.39459709 C10.7009821,3.64656512 10.9296434,3.87831271 11.1818182,3.87831271 C11.4339931,3.87831271 11.6626559,3.64656512 11.6590907,3.39459709 L11.6590907,1.4868723 C11.6590907,1.09239072 11.3845047,1.01120668 11.1271307,1.00495441 L11.1271307,1.00495441 Z M1.42756253,1.96384248 C1.19467903,1.9882311 0.998753923,2.20679006 1.00000597,2.44078083 L1.00000597,14.5230616 C1.00003142,14.7727865 1.22738652,14.9999682 1.47727841,15 L14.5227253,15 C14.7726172,14.9999682 14.9999723,14.7727865 14.9999978,14.5230616 L14.9999978,2.44078083 C14.9999723,2.19105598 14.7726172,1.9638743 14.5227253,1.96384248 L11.8181815,1.96384248 L11.8181815,2.91770328 L14.0454529,2.91770328 L14.0454529,4.50748506 L1.95455078,4.50748506 L1.95455078,2.91770328 L4.18182235,2.91770328 L4.18182235,1.96384248 L1.47727841,1.96384248 C1.46072183,1.96225157 1.44411911,1.96225157 1.42756253,1.96384248 L1.42756253,1.96384248 Z M5.45454887,1.96384248 L5.45454887,2.91770328 L10.545455,2.91770328 L10.545455,1.96384248 L5.45454887,1.96384248 Z M1.95455078,5.46134586 L14.0454529,5.46134586 L14.0454529,14.0461392 L1.95455078,14.0461392 L1.95455078,5.46134586 Z" id="Shape"></path>
        </g>
    </g>
</svg>