<svg xmlns="http://www.w3.org/2000/svg" xmlns:xlink="http://www.w3.org/1999/xlink" version="1.1" x="0px" y="0px" viewBox="0 0 24 30" style="enable-background:new 0 0 24 24;">
    <path d="M19.313,3.563h-1.688V1.875H16.5v1.688h-9V1.875H6.375v1.688H4.688c-1.551,0-2.813,1.262-2.813,2.813v12.938  c0,1.551,1.262,2.813,2.813,2.813h14.625c1.551,0,2.813-1.262,2.813-2.813V9.188V8.063V6.375  C22.125,4.824,20.863,3.563,19.313,3.563z M21,19.313C21,20.243,20.243,21,19.313,21H4.688C3.757,21,3,20.243,3,19.313V9.188h18  V19.313z M21,8.063H3V6.375c0-0.931,0.757-1.688,1.688-1.688h1.688v1.125H7.5V4.688h9v1.125h1.125V4.688h1.688  C20.243,4.688,21,5.444,21,6.375V8.063z"/>
</svg>