<?xml version="1.0" encoding="UTF-8" standalone="no"?>
<svg width="120px" height="120px" viewBox="0 0 120 120" version="1.1" xmlns="http://www.w3.org/2000/svg" xmlns:xlink="http://www.w3.org/1999/xlink">
    <!-- Generator: Sketch 41 (35326) - http://www.bohemiancoding.com/sketch -->
    <title>taverna</title>
    <desc>Created with Sketch.</desc>
    <defs></defs>
    <g id="icons" stroke="none" stroke-width="1" fill="none" fill-rule="evenodd">
        <g id="taverna">
            <path d="M90.359375,2 C107.125,2 118,12.875 118,29.640625 L118,90.359375 C118,107.125 107.125,118 90.359375,118 L29.640625,118 C12.875,118 2,107.125 2,90.359375 L2,29.640625 C2,12.875 12.875,2 29.640625,2 L90.359375,2 Z" id="App-Icon-Shape" fill="#008B5A"></path>
            <path d="M118,35.6575364 L118,29.640625 C118,12.875 107.125,2 90.359375,2 L29.640625,2 C12.875,2 2,12.875 2,29.640625 L2,68.9469109 C13.0898712,72.8310236 25.4578574,75 38.5,75 C74.1466369,75 104.757109,58.7970515 118,35.6575364 Z" id="Combined-Shape" fill="#00A46B"></path>
            <path d="M67.9494184,92.5316789 L69.4715738,95.8657858 C68.2808333,96.1541556 67.0694637,96.3892018 65.8401521,96.5682397 L64.2799055,93.1503559 C65.523067,93.0057784 66.7473264,92.7984651 67.9494184,92.5316789 Z M53.9603892,92.8893919 L52.4210204,96.2612028 C53.638146,96.4962786 54.8747449,96.6761148 56.1280882,96.7979855 L57.714693,93.3223616 C56.4446945,93.2421934 55.1921489,93.0967609 53.9603892,92.8893919 Z M69.4715738,95.8657858 L71.6404387,100.616436 C72.0519378,101.519281 71.6530173,102.58367 70.7509538,102.994707 C70.50657,103.104197 70.2549986,103.15625 70.005224,103.15625 C69.3223871,103.15625 68.6700982,102.766752 68.3682124,102.106221 L65.8401521,96.5682397 C63.9453166,96.8442052 62.0078534,96.9871035 60.0376023,96.9871035 C58.7187559,96.9871035 57.4146008,96.9230816 56.1280882,96.7979855 L53.7049057,102.106221 C53.40302,102.766752 52.750731,103.15625 52.0678941,103.15625 C51.8181196,103.15625 51.5665481,103.104197 51.3221644,102.994707 C50.4201009,102.58367 50.0211804,101.519281 50.4326795,100.616436 L52.4210204,96.2612028 C33.9738686,92.698317 20,76.4460926 20,56.9944492 C20,34.9420391 37.9604073,17 60.0376023,17 C82.1147973,17 100.075205,34.9402441 100.075205,56.9926543 C100.075205,75.8002213 87.0114114,91.6180434 69.4715738,95.8657858 Z M67.9494184,92.5316789 L63.0122797,81.7174427 L71.6338331,62.8310266 C72.6000012,63.1063379 73.5820123,63.2389824 74.5532771,63.2389824 C78.5892026,63.2389824 82.4436371,60.9486621 84.2118253,57.0752207 C84.2189352,57.0596214 84.2258037,57.0439738 84.2324323,57.0282822 L87.9145589,48.9618691 C87.9184606,48.9536375 87.9223074,48.9453627 87.9260986,48.9370449 C87.9343377,48.9189773 87.942521,48.9008982 87.9506486,48.8828077 L88.2028273,48.3303613 C88.2694029,48.1842917 88.3147655,48.0339937 88.3402163,47.8829182 C90.0195308,42.8241862 87.6095805,37.1749447 82.6089555,34.897166 C77.606512,32.6226785 71.7598161,34.5114195 69.0400241,39.0971168 C68.9426399,39.21536 68.8589153,39.3480731 68.7922901,39.4939609 L64.8363021,48.1663508 C64.8248018,48.1889711 64.8137248,48.2119328 64.803085,48.2352305 C63.6278868,50.8055586 63.534446,53.6846133 64.5425288,56.3375078 C65.3112795,58.3600691 66.6473905,60.0673185 68.3890249,61.2863972 C68.382442,61.2999434 68.3760083,61.3136083 68.3697265,61.3273906 L61.0365591,77.3898531 L54.3865186,62.8237019 C58.6079193,59.9661656 60.2960744,54.4194512 58.1292529,49.669373 C58.1165219,49.6415623 58.1031686,49.61423 58.0892171,49.5873853 L50.7725838,33.5563594 C50.3592878,32.6553086 49.2919059,32.255041 48.3916393,32.667873 C47.4877789,33.0789102 47.0888584,34.1432988 47.5003575,35.0461445 L54.8552296,51.1609531 C54.8680796,51.1889927 54.8815677,51.2165478 54.8956689,51.2436087 C56.4283911,54.7273227 54.8405294,58.8349212 51.3224472,60.4371094 C49.5991825,61.2214902 47.6800514,61.296877 45.9154571,60.6471152 C44.1580506,60.0009434 42.7636258,58.7103945 41.9909419,57.0159883 L34.6342728,40.8993848 C34.2227738,39.9965391 33.1589857,39.5980664 32.2533284,40.0108984 C31.349468,40.4219355 30.9523444,41.4863242 31.3638435,42.3891699 L38.6957451,58.4515141 C38.7031002,58.4690601 38.7107563,58.4865502 38.7187156,58.5039785 C39.8921169,61.0778965 42.0071144,63.0361563 44.6719752,64.0161836 C45.8705336,64.4577344 47.1176094,64.6785098 48.3628883,64.6785098 C49.2882257,64.6785098 50.2128925,64.5572819 51.1168189,64.3152353 L59.0608384,81.7174427 L53.9603892,92.8893919 C36.7476537,89.9915965 23.5938784,74.999111 23.5938784,56.9926543 C23.5938784,36.920043 39.9424312,20.5898438 60.0376023,20.5898438 C80.1345703,20.5898438 96.4813262,36.920043 96.4813262,56.9926543 C96.4813262,74.3524185 84.2545638,88.9129984 67.9494184,92.5316789 Z M57.714693,93.3223616 L61.0365591,86.0454658 L64.2799055,93.1503559 C62.8879736,93.3122352 61.4723447,93.3954648 60.0376023,93.3954648 C59.2574057,93.3954648 58.4828568,93.3708516 57.714693,93.3223616 Z M84.6339143,47.4944625 L80.941396,55.5836406 C80.9349665,55.5977471 80.9287349,55.611893 80.9227,55.6260753 C79.3114493,59.0991799 75.1414931,60.6157236 71.6062968,59.0065566 C69.8848291,58.2221758 68.5694696,56.8221367 67.9028052,55.0667031 C67.2458006,53.3308858 67.2980091,51.4523278 68.0524383,49.7715204 C68.0602719,49.7555862 68.0678978,49.7394857 68.0753113,49.7232207 L71.7833089,41.59448 C71.7842059,41.592534 71.7850999,41.5905856 71.7859908,41.5886348 C73.3816728,38.0885371 77.570338,36.5466992 81.117496,38.1639238 C84.664654,39.7811484 86.2513513,43.9453672 84.6538724,47.4490547 C84.6469937,47.4641467 84.6403415,47.4792839 84.6339143,47.4944625 Z M48.4257812,55.8833926 C47.7447412,55.8833926 47.0906554,55.4920996 46.7905665,54.8333633 L39.4338974,38.7185547 C39.0223984,37.8175039 39.4195219,36.7513203 40.3233823,36.3402832 C41.2272428,35.9292461 42.2928277,36.3277187 42.7043268,37.2287695 L50.0609958,53.3435781 C50.4724949,54.2446289 50.0753714,55.3108125 49.1715109,55.7218496 C48.9271272,55.8295449 48.6737588,55.8833926 48.4257812,55.8833926 Z" id="Combined-Shape" fill="#FFFFFF"></path>
        </g>
    </g>
</svg>