<?xml version="1.0" encoding="UTF-8" standalone="no"?>
<svg width="16px" height="16px" viewBox="0 0 16 16" version="1.1" xmlns="http://www.w3.org/2000/svg" xmlns:xlink="http://www.w3.org/1999/xlink">
    <!-- Generator: Sketch 3.6.1 (26313) - http://www.bohemiancoding.com/sketch -->
    <title>expand</title>
    <desc>Created with Sketch.</desc>
    <defs></defs>
    <g id="Page-1" stroke="none" stroke-width="1" fill="none" fill-rule="evenodd">
        <g id="expand" fill="#000000">
            <path d="M8,2.45833333 C11.0625,2.45833333 13.5416667,4.9375 13.5416667,8 C13.5416667,11.0625 11.0625,13.5416667 8,13.5416667 C4.9375,13.5416667 2.45833333,11.0625 2.45833333,8 C2.45833333,4.9375 4.9375,2.45833333 8,2.45833333 L8,2.45833333 Z M8,1 C4.12083333,1 1,4.12083333 1,8 C1,11.8791667 4.12083333,15 8,15 C11.8791667,15 15,11.8791667 15,8 C15,4.12083333 11.8791667,1 8,1 L8,1 L8,1 Z M8.525,9.69166667 L10.275,7.94166667 C10.5666667,7.65 10.5666667,7.18333333 10.275,6.92083333 C9.98333333,6.62916667 9.51666667,6.62916667 9.25416667,6.92083333 L8,8.14583333 L6.775,6.92083333 C6.48333333,6.62916667 6.01666667,6.62916667 5.75416667,6.92083333 C5.4625,7.2125 5.4625,7.67916667 5.75416667,7.94166667 L7.50416667,9.69166667 C7.65,9.8375 7.825,9.89583333 8.02916667,9.89583333 C8.23333333,9.89583333 8.37916667,9.8375 8.525,9.69166667 L8.525,9.69166667 Z" id="Shape"></path>
        </g>
    </g>
</svg>