<?xml version="1.0" encoding="UTF-8" standalone="no"?>
<svg width="16px" height="16px" viewBox="0 0 16 16" version="1.1" xmlns="http://www.w3.org/2000/svg" xmlns:xlink="http://www.w3.org/1999/xlink">
    <!-- Generator: Sketch 41 (35326) - http://www.bohemiancoding.com/sketch -->
    <title>taverna</title>
    <desc>Created with Sketch.</desc>
    <defs></defs>
    <g id="icons" stroke="none" stroke-width="1" fill="none" fill-rule="evenodd">
        <g id="taverna" fill="#000000">
            <path d="M9.56983321,13.5118967 L9.82601025,14.0730231 C9.62560995,14.1215554 9.42173782,14.1611134 9.21484606,14.1912453 L8.9522583,13.6160193 C9.16148099,13.5916871 9.36752247,13.5567965 9.56983321,13.5118967 Z M7.21549531,13.5720993 L6.95642127,14.1395713 C7.16126215,14.1791343 7.36938035,14.2094005 7.58031663,14.2299113 L7.84734042,13.6449676 C7.63360111,13.6314754 7.42279909,13.6069993 7.21549531,13.5720993 Z M9.82601025,14.0730231 L10.1910278,14.8725521 C10.2602826,15.0245 10.1931447,15.2036354 10.0413285,15.2728125 C10.0001989,15.2912396 9.95785975,15.3 9.91582297,15.3 C9.80090229,15.3 9.6911228,15.2344479 9.64031576,15.1232813 L9.21484606,14.1912453 C8.89594737,14.23769 8.56987449,14.2617396 8.23828344,14.2617396 C8.01632309,14.2617396 7.79683525,14.2509648 7.58031663,14.2299113 L7.17249774,15.1232813 C7.1216907,15.2344479 7.01191121,15.3 6.89699053,15.3 C6.85495375,15.3 6.81261455,15.2912396 6.77148504,15.2728125 C6.61966878,15.2036354 6.5525309,15.0245 6.62178574,14.8725521 L6.95642127,14.1395713 C3.85178637,13.5399416 1.5,10.8047106 1.5,7.53102085 C1.5,3.81962501 4.52271635,0.800000012 8.23828344,0.800000012 C11.9538505,0.800000012 14.9765669,3.81932293 14.9765669,7.53071876 C14.9765669,10.6960111 12.7779452,13.3581328 9.82601025,14.0730231 Z M9.56983321,13.5118967 L8.73891831,11.6918728 L10.189916,8.51331026 C10.3525211,8.55964485 10.5177924,8.58196876 10.6812552,8.58196876 C11.3604969,8.58196876 12.0091939,8.19651043 12.306778,7.5446146 C12.3079746,7.54198924 12.3091305,7.53935577 12.3102461,7.5367149 L12.9299439,6.17914664 C12.9306006,6.17776128 12.931248,6.17636864 12.931886,6.17496876 C12.9332726,6.17192801 12.9346499,6.16888531 12.9360178,6.1658407 L12.9784591,6.0728646 C12.9896637,6.04828125 12.9972982,6.02298625 13.0015816,5.99756041 C13.2842083,5.14618151 12.8786164,4.19542052 12.0370168,3.81207293 C11.1951112,3.42927924 10.2111189,3.74715222 9.75338091,4.51891993 C9.73699126,4.53882013 9.7229005,4.56115559 9.71168755,4.58570835 L9.04589922,6.0452618 C9.04396375,6.04906878 9.04209949,6.05293321 9.04030883,6.05685418 C8.84252429,6.48943751 8.8267983,6.97397918 8.99645752,7.42045835 C9.1258374,7.76085313 9.35070336,8.04818129 9.64381847,8.25335087 C9.64271059,8.25563068 9.6416278,8.25793046 9.64057059,8.26025001 L8.40640675,10.9635444 L7.28721241,8.51207752 C7.9976694,8.03115737 8.28178402,7.09765157 7.91711038,6.29821876 C7.91496778,6.29353824 7.91272043,6.28893826 7.91037241,6.28442032 L6.67899125,3.58641668 C6.60943399,3.43477085 6.42979482,3.36740626 6.27828098,3.43688543 C6.12616228,3.50606251 6.05902441,3.68519793 6.12827924,3.83714585 L7.36609596,6.54925001 C7.36825859,6.55396905 7.37052863,6.55860653 7.37290184,6.56316085 C7.63085727,7.149466 7.36362193,7.84077021 6.77153264,8.11041668 C6.48150913,8.2424271 6.15852153,8.2551146 5.86154229,8.14576043 C5.56577275,8.03701043 5.33109262,7.81981251 5.2010508,7.53464585 L3.96293166,4.8222396 C3.89367683,4.67029168 3.71464251,4.60322918 3.56222139,4.67270835 C3.4101027,4.74188543 3.34326725,4.92102085 3.41252208,5.07296876 L4.64647288,7.77624323 C4.64771074,7.7791962 4.64899925,7.78213976 4.65033879,7.78507293 C4.84782091,8.21826043 5.2037726,8.54783335 5.65226568,8.71277085 C5.85398172,8.78708335 6.06386318,8.8242396 6.27344221,8.8242396 C6.42917545,8.8242396 6.58479584,8.80383708 6.73692563,8.76310092 L8.07389519,11.6918728 L7.21549531,13.5720993 C4.31861129,13.0844036 2.10484569,10.5611852 2.10484569,7.53071876 C2.10484569,4.15252085 4.85628875,1.40416668 8.23828344,1.40416668 C11.6205806,1.40416668 14.3717212,4.15252085 14.3717212,7.53071876 C14.3717212,10.4523476 12.3139708,12.9028768 9.56983321,13.5118967 Z M7.84734042,13.6449676 L8.40640675,12.4202743 L8.9522583,13.6160193 C8.71799773,13.6432634 8.47974899,13.6572708 8.23828344,13.6572708 C8.10697724,13.6572708 7.97662153,13.6531285 7.84734042,13.6449676 Z M12.3778151,5.93218376 L11.7563684,7.29358335 C11.7552863,7.29595745 11.7542376,7.2983382 11.7532219,7.30072505 C11.4820502,7.88524466 10.7802513,8.14047725 10.1852817,7.86965626 C9.89556064,7.73764585 9.67418712,7.50202085 9.56198824,7.20658335 C9.45141511,6.91444724 9.46020174,6.59828804 9.58717134,6.31541004 C9.58848971,6.31272834 9.58977315,6.31001864 9.59102084,6.30728126 L10.2150727,4.93922335 C10.2152236,4.93889583 10.2153741,4.93856791 10.215524,4.9382396 C10.4840755,4.3491771 11.1890232,4.08968751 11.7860059,4.3618646 C12.3829886,4.63404168 12.6500279,5.33487501 12.381174,5.92454168 C12.3800163,5.92708166 12.3788968,5.92962923 12.3778151,5.93218376 Z M6.28402701,7.34403126 C6.16940875,7.34403126 6.05932684,7.2781771 6.00882222,7.16731251 L4.77070309,4.45520835 C4.70144825,4.30356251 4.7682837,4.12412501 4.92040239,4.05494793 C5.07252109,3.98577085 5.25185783,4.05283335 5.32111267,4.20447918 L6.5592318,6.91658335 C6.62848663,7.06822918 6.56165118,7.24766668 6.40953249,7.31684376 C6.36840298,7.33496876 6.32576136,7.34403126 6.28402701,7.34403126 Z" id="Combined-Shape"></path>
        </g>
    </g>
</svg>