<?xml version="1.0" encoding="UTF-8" standalone="no"?>
<svg width="16px" height="16px" viewBox="0 0 16 16" version="1.1" xmlns="http://www.w3.org/2000/svg" xmlns:xlink="http://www.w3.org/1999/xlink">
    <!-- Generator: Sketch 41 (35326) - http://www.bohemiancoding.com/sketch -->
    <title>vendor</title>
    <desc>Created with Sketch.</desc>
    <defs></defs>
    <g id="Page-1" stroke="none" stroke-width="1" fill="none" fill-rule="evenodd">
        <g id="vendor" fill="#000000">
            <path d="M5.18640781,3.34149612 L5.18640781,4.87685047 C5.18640781,6.56370089 6.45048549,7.9825198 7.99126221,7.9825198 C9.53203893,7.9825198 10.793204,6.56370089 10.793204,4.87685047 L10.793204,3.34149612 C11.4805826,3.26574809 12.016505,2.68307092 12.016505,1.97511815 C12.016505,1.21763783 11.3990292,0.600000024 10.6417477,0.600000024 L5.34077674,0.600000024 C4.58349518,0.600000024 3.96601944,1.21763783 3.96601944,1.97511815 C3.96601944,2.68307092 4.50194178,3.26574809 5.18640781,3.34149612 Z M7.99126221,7.16094499 C7.01262142,7.16094499 6.20291268,6.34811033 6.04854374,5.29055127 L9.93689331,5.29055127 C9.78252437,6.34811033 8.969903,7.16094499 7.99126221,7.16094499 Z M9.97184476,4.46606307 L6.01067966,4.46606307 L6.01067966,3.35023628 L9.97184476,3.35023628 L9.97184476,4.46606307 Z M5.34077674,1.42157484 L10.6417477,1.42157484 C10.9475729,1.42157484 11.1951457,1.66921264 11.1951457,1.97511815 C11.1951457,2.28102367 10.9475729,2.52866147 10.6417477,2.52866147 L5.34077674,2.52866147 C5.0349515,2.52866147 4.78737868,2.28102367 4.78737868,1.97511815 C4.78737868,1.66921264 5.0349515,1.42157484 5.34077674,1.42157484 Z M12.0048545,9.68976392 C9.4184467,8.8274017 6.56699035,8.8274017 3.97766993,9.68976392 C2.79514564,10.083071 2,11.1843309 2,12.4283466 L2,14.9892128 C2,15.2164569 2.18349515,15.4000002 2.41067962,15.4000002 L13.5689322,15.4000002 C13.7961167,15.4000002 13.9796118,15.2164569 13.9796118,14.9892128 L13.9796118,12.4283466 C13.9825244,11.1843309 13.1873788,10.083071 12.0048545,9.68976392 Z M9.54368942,9.96653558 C9.49708748,10.785197 8.82135931,11.4348821 7.99126221,11.4348821 C7.16407774,11.4348821 6.48543695,10.7822836 6.43883501,9.96653558 C7.46990298,9.83251983 8.51262144,9.83251983 9.54368942,9.96653558 Z M4.11165051,14.5784254 L2.82135923,14.5784254 L2.82135923,12.4283466 C2.82135923,11.5834647 3.3339806,10.8347246 4.10873789,10.5171655 L4.10873789,14.5784254 L4.11165051,14.5784254 Z M11.0495147,14.5784254 L4.93300975,14.5784254 L4.93300975,10.2637009 C5.16310684,10.2025198 5.39320393,10.1471655 5.62621364,10.1005513 C5.73689325,11.3096065 6.75631074,12.2593703 7.99126221,12.2593703 C9.22912631,12.2593703 10.2456312,11.3096065 10.3563108,10.1005513 C10.5893205,10.1471655 10.8194176,10.2025198 11.0495147,10.2637009 L11.0495147,14.5784254 Z M13.1611652,14.5784254 L11.8737865,14.5784254 L11.8737865,10.5171655 C12.6485438,10.8318112 13.1611652,11.5834647 13.1611652,12.4283466 L13.1611652,14.5784254 Z"></path>
        </g>
    </g>
</svg>